<svg width="12" height="19" viewBox="0 0 12 19" fill="none" xmlns="http://www.w3.org/2000/svg">
<g clip-path="url(#clip0_2_28403)">
<path d="M11.488 11.988C11.677 12.177 11.543 12.5 11.276 12.5H6.3C6.134 12.5 6 12.634 6 12.8V17.776C6 18.043 5.677 18.177 5.488 17.988L0.117 12.617C0.042 12.542 0 12.44 0 12.334V6.8C0 6.634 0.134 6.5 0.3 6.5H6L11.488 11.988Z" fill="black"/>
<path d="M6.00028 6.5L0.512277 1.012C0.323277 0.823 0.457277 0.5 0.724277 0.5H11.7003C11.8663 0.5 12.0003 0.634 12.0003 0.8V6.2C12.0003 6.366 11.8663 6.5 11.7003 6.5H6.00028Z" fill="black"/>
</g>
<defs>
<clipPath id="clip0_2_28403">
<rect width="12" height="18" fill="white" transform="translate(0 0.5)"/>
</clipPath>
</defs>
</svg>
